Patient4_TMGait_0pt3_01_right_30_EMG.mot
version=1
nRows=16
nColumns=33
inDegrees=no
endheader
time	1LAddLong	2LGlutMax	3LGlutMed	4LIliopsoas	5LSemiMemb	6LBicFemLong	7LRecFem	8LVastMed	9LVastLat	10LGasMed	11LTibAnt	12lTibPost	13LPeroneusLong	14LSol	15LExtDigLong	16LFlexDigLong	17RAddLong	18RGlutMax	19RGlutMed	20RIliopsoas	21RSemiMemb	22RBicFemLong	23RRecFem	24RVastMed	25RVastLat	26RGasMed	27RTibAnt	28RTibPost	29RPeroneusLong	30RSol	31RExtDigLong	32RFlexDigLong
55.77	0.061493	0.035095	0.11231	0.004272	0.013275	0.06012	-0.067902	-0.064545	-0.077209	-0.39429	-0.023651	0.31586	0.39093	0.57281	-0.04303	-0.068512	0.010681	-0.018005	0.031281	-0.083466	-0.056763	-0.15381	0.20706	-0.09552	-0.052338	0.000763	-0.14236	-0.003204	0.01236	-0.050354	-0.002899	-0.005646
55.771	0.044708	0.01236	-0.014496	0.010223	0.009918	0.046234	-0.045013	-0.060883	-0.11185	-0.31525	-0.008087	-0.1857	0.50934	0.057068	-0.009308	-0.016785	0.054016	-0.016785	0.083618	-0.13901	-0.057068	-0.16495	0.21805	-0.13123	-0.044098	-0.001221	-0.054474	0.002899	0.02655	-0.023499	0.000305	-0.00946
55.772	0.034637	0.019836	0.000305	0.020752	0.001526	0.15289	0.050049	-0.035706	-0.01236	-0.24902	0.00946	0.27695	-0.003815	-0.25223	-0.050964	0.02655	0.053711	-0.029449	0.013733	-0.028534	-0.064392	-0.16571	0.23102	-0.096588	-0.028381	0.001526	-0.24872	-0.003204	0.12573	-0.11459	0.000153	-0.001068
55.773	0.028534	0.029449	0.016174	0.013123	0.010071	0.16571	0.19165	0.007324	0.015411	-0.085754	0.01358	-0.027466	-0.22446	-0.1944	-0.05661	0.03418	0.082092	-0.066681	0.21835	0.011444	-0.039673	-0.14954	0.17761	-0.10742	-0.052643	-0.003357	0.15778	0.000763	0.018768	-0.16556	-0.001068	-0.009308
55.774	0.00061	-0.016632	0.017395	-0.014648	0.009155	0.019684	0.27283	0.029297	0.005951	-0.063782	0.005951	-0.15366	0.043793	-0.080414	-0.022583	0.01297	0.10178	-0.02655	-0.033417	-0.04364	-0.013275	-0.16327	0.17242	-0.099487	-0.025024	-0.007324	0.61783	0.002289	-0.020294	-0.10254	-0.007935	-0.002594
55.775	0.007172	-0.011749	-0.001678	-0.01236	0.005493	0.15686	0.18387	0.022125	-0.021667	-0.044098	0.005493	0.021667	-0.052795	-0.23544	-0.000305	-0.021667	0.053406	0.014343	-0.054321	-0.1355	0.029297	-0.13153	0.16068	-0.081024	-0.006104	0.009003	0.44144	0.001678	-0.078125	-0.07019	-0.004578	-0.001221
55.776	0.003357	0.052338	-0.012054	-0.006561	0.00351	0.19775	0.012817	0	0.006714	-0.011597	0.011292	-0.00946	-0.13428	-0.23636	-0.011139	-0.007782	-0.006866	-0.001678	-0.020752	-0.029602	0.027313	-0.080566	0.16068	0.005188	0.006409	0.00061	-0.092163	0.000153	-0.001831	-0.081177	-0.002747	-0.00351
55.777	0.000763	0.06958	0.0737	0.04364	0.00946	0.020599	-0.03418	-0.002899	0.045776	0.036316	0.007782	-0.00824	-0.006104	-0.19226	-0.014038	-0.026093	-0.045471	-0.006866	0.069733	0.1471	0.013733	-0.060577	0.14023	-0.031586	0.017395	0.001221	-0.52521	0.003967	0.02182	-0.083313	0.000153	-0.003662
55.778	-0.013733	0.013733	0.1593	0.016785	-0.002136	0.26535	-0.026398	0.029297	0.052338	0.10407	0.005341	-0.030365	0.043335	0.17166	-0.010834	-0.041656	-0.057983	-0.042877	0.13519	0.15457	0.018158	0.006561	0.17319	-0.016937	0.006866	0.002136	-0.80872	0.004272	0.048676	-0.093842	-0.002441	-0.004578
55.779	-0.022278	0.041962	0.093079	0.010376	-0.00946	0.2243	-0.044861	0.036926	0.098114	0.037231	0.004425	-0.037689	0.08316	0.38895	-0.031433	-0.030823	-0.058899	-0.051117	0.12802	0.034027	0.030212	0.020294	0.13931	-0.015564	0.033264	0.005798	-0.80688	0.002899	0.071411	-0.079651	-0.003357	-0.005035
55.78	-0.012665	0.12787	0.026245	0.004425	-0.01358	0.20981	-0.01709	0.048828	0.040894	0.011902	0.003204	-0.027313	0.027924	0.37659	-0.004272	-0.053406	-0.046082	-0.072174	-0.021973	-0.04303	0.045471	0.047455	0.12772	0.0737	0.032959	0.00351	-0.17242	0.002747	-0.070648	-0.12634	-0.003815	-0.009918
55.781	-0.007477	0.17807	0.017548	-0.006104	-0.011902	0.18463	-0.080414	0.027008	0.15808	0.044861	0.004578	-0.01709	-0.09201	-0.050812	0.008545	0.089874	-0.026245	-0.06134	-0.15503	-0.074921	0.046387	0.071411	0.070343	0.089722	0.032349	0.006714	0.43533	0.00412	-0.22507	-0.10864	-0.00412	-0.016632
55.782	-0.013733	0.18356	-0.024261	0.014801	0.002594	0.071869	-0.17563	-0.007782	0.13855	0.11902	0.006561	0.002441	0.14114	-0.34622	0.023651	0.11932	-0.023804	-0.09079	-0.14786	-0.032043	0.064087	0.062103	0.1088	0.11658	0.032196	0.007629	0.54443	0.002289	-0.087433	-0.20569	-0.002899	-0.009918
55.783	0.012207	0.21057	0.083923	0.030212	0.016327	-0.30045	-0.074005	-0.030365	-0.001068	0.14954	0.011139	0.06424	0.36163	-0.19638	0.003815	0.071716	0.002747	-0.13062	-0.13657	-0.068359	0.074158	0.06958	0.095215	0.11963	0.053253	0.002594	0.59753	0.004883	-0.087433	-0.21713	-0.003815	-0.013733
55.784	-0.002594	0.27756	0.037231	0.007477	0.006104	-0.21118	-0.061951	-0.05722	0.033264	0.21423	-0.007477	-0.03479	0.26581	-0.000916	-0.055847	0.01297	0.047302	-0.15839	-0.1535	-0.20523	0.085907	0.084839	0.053558	0.12375	0.032501	-0.001068	0.38727	0.009155	-0.08728	-0.089569	-0.002136	-0.018005
55.785	0.005646	0.34317	0.07431	0.004578	-0.013428	0.12528	-0.080261	-0.050964	0.035248	0.18326	-0.00885	-0.014038	0.25116	-0.050507	-0.028687	0.008545	0.043335	-0.16556	-0.12283	-0.45288	0.095673	0.058899	0.028076	0.11337	0.026398	-0.007019	0.50552	0.003357	-0.1886	-0.001678	-0.002441	-0.025787
